<svg id="Layer_5" enable-background="new 0 0 62 62" height="512" viewBox="0 0 62 62" width="512" xmlns="http://www.w3.org/2000/svg"><g><g><g><path d="m56 17v4l-2.25.75c-.41 2.37-1.34 4.56-2.67 6.44l1.06 2.12-2.83 2.83-2.12-1.06c-1.88 1.33-4.07 2.26-6.44 2.67l-.75 2.25h-4l-.75-2.25c-1.9-.33-3.69-1-5.3-1.93.6-1.28.95-2.67 1.03-4.09 1.97 1.43 4.4 2.27 7.02 2.27 6.63 0 12-5.37 12-12s-5.37-12-12-12c-6.57 0-11.9 5.27-12 11.82-1.19-.78-2.53-1.34-3.98-1.61v-.01l.23-.95c.41-2.37 1.34-4.56 2.67-6.44l-1.06-2.12 2.83-2.83 2.12 1.06c1.88-1.33 4.07-2.26 6.44-2.67l.75-2.25h4l.75 2.25c2.37.41 4.56 1.34 6.44 2.67l2.12-1.06 2.83 2.83-1.06 2.12c1.33 1.88 2.26 4.07 2.67 6.44z" fill="#fcd770"/></g><g><path d="m13.4 26.99-.01.01h-4.39c-2.21 0-4 1.79-4 4v2h-1c-.73 0-1.4.26-1.92.7-.71-1.49-1.08-3.12-1.08-4.78 0-2.26.3-4.51.87-6.69.58-2.17 1.44-4.27 2.57-6.24l.56-.99.09.04c3.24 1.29 6.71 1.96 10.2 1.96h4.61c.73 0 1.44.07 2.12.21 1.45.27 2.79.83 3.98 1.61v.01c3.01 1.98 5 5.39 5 9.27 0 .21-.01.42-.02.63-.08 1.42-.43 2.81-1.03 4.09l-.33.65c-.47-.29-1.02-.47-1.62-.47h-1v-1c0-1.66-1.34-3-3-3h-4.72c-2.19 0-4.24-.74-5.88-2.01z" fill="#656d78"/></g><g><path d="m21.66 48.56c3.2 1.92 5.34 5.43 5.34 9.44v3h-22v-3c0-3.04 1.23-5.79 3.22-7.78.64-.64 1.35-1.19 2.12-1.66v.01l1.66 6.43 4-4 4 4 1.66-6.43z" fill="#4fc1e9"/></g><g><path d="m21.66 48.56v.01l-1.66 6.43-4-4 3.12-3.55c.9.26 1.75.64 2.54 1.11z" fill="#3bafda"/></g><g><path d="m10.34 48.57v-.01c.79-.47 1.64-.85 2.54-1.11l3.12 3.55-4 4z" fill="#3bafda"/></g><g><path d="m19.12 47.45-3.12 3.55-3.12-3.55c.99-.29 2.03-.45 3.12-.45s2.13.16 3.12.45z" fill="#f0d0b4"/></g><g><path d="m26.94 38.99c.04-.32.06-.66.06-.99v-2-3h1c.6 0 1.15.18 1.62.47.83.54 1.38 1.47 1.38 2.53 0 .83-.34 1.58-.88 2.12s-1.29.88-2.12.88h-1z" fill="#f0d0b4"/></g><g><path d="m5 38c0 .33.02.67.06.99l-.06.01h-1c-.83 0-1.58-.34-2.12-.88s-.88-1.29-.88-2.12c0-.93.42-1.76 1.08-2.3.52-.44 1.19-.7 1.92-.7h1v3z" fill="#f0d0b4"/></g><g><path d="m24 29h-4.72c-2.19 0-4.24-.74-5.88-2.01l-.01.01h-4.39c-2.21 0-4 1.79-4 4v2 3 2c0 .33.02.67.06.99.49 4.5 4.3 8.01 8.94 8.01h2 2c4.64 0 8.45-3.51 8.94-8.01.04-.32.06-.66.06-.99v-2-3-1c0-1.66-1.34-3-3-3z" fill="#f0d0b4"/></g><g><path d="m53 39h6v22h-6z" fill="#ff826e"/></g><g><path d="m43 43h6v18h-6z" fill="#ff826e"/></g><g><path d="m33 47h6v14h-6z" fill="#ff826e"/></g><g><path d="m18 39h2c0 2.21-1.79 4-4 4-1.1 0-2.1-.45-2.83-1.17-.72-.73-1.17-1.73-1.17-2.83h2z" fill="#ff826e"/></g><g><path d="m41 23v1c0 .83-.34 1.58-.88 2.12s-1.29.88-2.12.88c-1.66 0-3-1.34-3-3v-1h3z" fill="#ccd1d9"/></g><g><path d="m38 23h-3l-1.8-2.4c-.78-1.04-1.2-2.3-1.2-3.6 0-1.66.67-3.16 1.76-4.24 1.08-1.09 2.58-1.76 4.24-1.76s3.16.67 4.24 1.76c1.09 1.08 1.76 2.58 1.76 4.24 0 1.3-.42 2.56-1.2 3.6l-1.8 2.4z" fill="#ffeaa7"/></g><g><circle cx="38" cy="17" fill="#fcd770" r="2"/></g></g><g><path d="m34 23.333v.667c0 2.206 1.794 4 4 4s4-1.794 4-4v-.667l1.6-2.133c.903-1.204 1.4-2.695 1.4-4.2 0-3.86-3.141-7-7-7s-7 3.14-7 7c0 1.505.497 2.997 1.4 4.2zm4 2.667c-1.103 0-2-.897-2-2h4c0 1.103-.897 2-2 2zm-1-9c0-.551.448-1 1-1s1 .449 1 1-.448 1-1 1-1-.449-1-1zm1-5c2.757 0 5 2.243 5 5 0 1.075-.355 2.141-1 3l-1.5 2h-1.5v-2.184c1.161-.414 2-1.514 2-2.816 0-1.654-1.346-3-3-3s-3 1.346-3 3c0 1.302.839 2.402 2 2.816v2.184h-1.5l-1.5-2c-.645-.859-1-1.925-1-3 0-2.757 2.243-5 5-5z"/><path d="m21.001 39v-1h-10v1c0 2.757 2.243 5 5 5s5-2.243 5-5zm-5 3c-1.304 0-2.416-.836-2.829-2h5.658c-.413 1.164-1.525 2-2.829 2z"/><path d="m21.001 34c1.103 0 2 .897 2 2h2c0-2.206-1.794-4-4-4s-4 1.794-4 4h2c0-1.103.897-2 2-2z"/><path d="m13.001 36h2c0-2.206-1.794-4-4-4s-4 1.794-4 4h2c0-1.103.897-2 2-2s2 .897 2 2z"/><path d="m60 60v-22h-8v22h-2v-18h-8v18h-2v-14h-8v14h-4v-2c0-4.63-2.64-8.648-6.49-10.648 3.179-1.198 5.597-3.96 6.288-7.352h.202c2.206 0 4-1.794 4-4 0-.415-.082-.808-.2-1.185.869.34 1.764.61 2.685.804l.794 2.381h5.441l.794-2.381c2.064-.433 3.996-1.231 5.755-2.38l2.241 1.121 3.849-3.848-1.121-2.241c1.149-1.759 1.948-3.69 2.381-5.755l2.381-.795v-5.441l-2.381-.794c-.433-2.065-1.231-3.996-2.381-5.755l1.121-2.241-3.849-3.848-2.24 1.12c-1.759-1.149-3.69-1.948-5.755-2.38l-.794-2.382h-5.441l-.794 2.381c-2.064.433-3.996 1.231-5.755 2.38l-2.241-1.121-3.849 3.848 1.121 2.241c-1.259 1.926-2.096 4.054-2.48 6.282l-.017.071c-.451-.05-.906-.082-1.369-.082h-4.606c-3.383 0-6.689-.637-9.917-1.928-.459-.184-.992-.001-1.24.432l-.564.988c-2.336 4.085-3.569 8.729-3.569 13.432 0 1.558.326 3.117.913 4.563-.562.689-.913 1.557-.913 2.513 0 2.206 1.794 4 4 4h.202c.691 3.392 3.109 6.154 6.288 7.352-3.85 2-6.49 6.018-6.49 10.648v4h28 8 2 8 2 8 2v-2zm-47.428-11.382 2.058 2.338-2.099 2.099-1.027-3.975c.344-.174.701-.327 1.068-.462zm3.428-.618c.419 0 .828.034 1.234.084l-1.234 1.402-1.234-1.402c.406-.05.815-.084 1.234-.084zm3.428.618c.367.134.723.287 1.069.462l-1.027 3.975-2.099-2.099zm8.572-10.618v-4c1.103 0 2 .897 2 2s-.897 2-2 2zm-.967-19.65c.341-5.749 5.152-10.35 10.967-10.35 6.065 0 11 4.935 11 11s-4.935 11-11 11c-2.156 0-4.22-.623-6.007-1.793 0-.034.007-.068.007-.103 0-4.004-1.962-7.549-4.967-9.754zm-3.795-1.93c.381-2.195 1.222-4.226 2.497-6.038l.345-.489-1.006-2.009 1.81-1.809 2.01 1.005.489-.344c1.812-1.276 3.843-2.116 6.037-2.497l.589-.103.712-2.136h2.559l.712 2.136.589.103c2.194.381 4.226 1.221 6.037 2.497l.489.344 2.01-1.005 1.81 1.809-1.007 2.009.345.489c1.275 1.812 2.116 3.843 2.497 6.038l.103.589 2.135.712v2.559l-2.136.712-.103.589c-.381 2.195-1.222 4.226-2.497 6.038l-.345.489 1.006 2.009-1.81 1.809-2.01-1.005-.489.344c-1.812 1.276-3.843 2.116-6.037 2.497l-.589.103-.711 2.135h-2.559l-.712-2.136-.589-.103c-1.476-.256-2.883-.738-4.204-1.409.238-.636.411-1.291.54-1.957 1.907 1.048 4.034 1.605 6.245 1.605 7.168 0 13-5.832 13-13s-5.832-13-13-13c-6.524 0-11.982 4.9-12.865 11.21-.611-.295-1.248-.543-1.911-.733zm-21.238 19.58c0-1.103.897-2 2-2v4c-1.103 0-2-.897-2-2zm2-5v1c-.503 0-.981.104-1.425.274-.377-1.074-.575-2.214-.575-3.35 0-4.355 1.143-8.657 3.304-12.44l.138-.242c3.16 1.167 6.468 1.758 9.847 1.758h4.606c5.572 0 10.105 4.533 10.105 10.104 0 1.405-.312 2.793-.877 4.076-.359-.106-.731-.18-1.123-.18 0-2.206-1.794-4-4-4h-4.72c-3.842 0-7.263-2.58-8.318-6.275l-1.924.55c.396 1.386 1.063 2.645 1.933 3.725h-1.971c-2.757 0-5 2.243-5 5zm10 15c-4.411 0-8-3.588-8-8v-7c0-1.654 1.346-3 3-3h4.087c1.768 1.267 3.921 2 6.193 2h4.72c1.103 0 2 .897 2 2v6c0 4.412-3.589 8-8 8zm12 14h-20v-2c0-3.142 1.459-5.946 3.732-7.781l1.737 6.725 4.531-4.53 4.53 4.531 1.737-6.725c2.274 1.834 3.733 4.638 3.733 7.78zm8 0v-12h4v12zm10 0v-16h4v16zm10 0v-20h4v20z"/></g></g></svg>