<svg id="Layer_5" enable-background="new 0 0 64 64" height="512" viewBox="0 0 64 64" width="512" xmlns="http://www.w3.org/2000/svg"><g><g><g><path d="m32 32h14c0 1.59-.27 3.12-.76 4.54-1.39 4.08-4.62 7.31-8.7 8.7-1.42.49-2.95.76-4.54.76-3.86 0-7.36-1.57-9.9-4.1z" fill="#fcd770"/></g><g><path d="m27.46 18.76c1.42-.49 2.95-.76 4.54-.76 7.73 0 14 6.27 14 14h-14l-9.9-9.9c1.49-1.49 3.32-2.65 5.36-3.34z" fill="#ff826e"/></g><g><path d="m18.76 27.46c.69-2.04 1.85-3.87 3.34-5.36l9.9 9.9-9.9 9.9c-2.53-2.54-4.1-6.04-4.1-9.9 0-1.59.27-3.12.76-4.54z" fill="#b4dd7f"/></g><g><path d="m21 5c0 .63-.2 1.22-.53 1.7-.54.79-1.44 1.3-2.47 1.3-1.66 0-3-1.34-3-3 0-.35.06-.68.18-.99.4-1.17 1.51-2.01 2.82-2.01 1.66 0 3 1.34 3 3z" fill="#ff826e"/></g><g><path d="m3.64 49.67c-.98-.49-1.64-1.5-1.64-2.67 0-1.66 1.34-3 3-3 .45 0 .89.1 1.27.29 1.02.47 1.73 1.5 1.73 2.71 0 1.66-1.34 3-3 3-.49 0-.95-.12-1.36-.33z" fill="#ff826e"/></g><g><path d="m46 56c1.66 0 3 1.34 3 3 0 .35-.06.68-.18.99-.4 1.17-1.51 2.01-2.82 2.01-1.66 0-3-1.34-3-3 0-.63.2-1.22.53-1.7.54-.79 1.44-1.3 2.47-1.3z" fill="#ff826e"/></g><g><path d="m60.36 14.33c.98.49 1.64 1.5 1.64 2.67 0 1.66-1.34 3-3 3-.45 0-.89-.1-1.27-.29-1.02-.47-1.73-1.5-1.73-2.71 0-1.66 1.34-3 3-3 .49 0 .95.12 1.36.33z" fill="#ff826e"/></g><g><path d="m12 46h10v8h-10z" fill="#ffeaa7"/></g><g><path d="m10 12h10v8h-10z" fill="#ffeaa7"/></g><g><path d="m42 11h10v8h-10z" fill="#ffeaa7"/></g><g><path d="m44 44h10v8h-10z" fill="#ffeaa7"/></g></g><g><path d="m58.183 20.915c.264.055.537.085.817.085 2.206 0 4-1.794 4-4 0-1.229-.569-2.316-1.443-3.05 1.966-5.231 1.904-9.128-.237-11.269-4.384-4.386-16.032.075-29.333 10.872-3.503-2.831-6.935-5.255-10.229-7.23.147-.416.242-.857.242-1.323 0-2.206-1.794-4-4-4-1.365 0-2.57.689-3.292 1.736-5.633-2.274-9.783-2.3-12.028-.055-4.331 4.333-.052 15.8 10.88 29.318-3.063 3.789-5.686 7.541-7.742 11.086-.265-.055-.538-.085-.818-.085-2.206 0-4 1.794-4 4 0 1.229.569 2.316 1.443 3.05-1.966 5.231-1.904 9.128.237 11.269 1.128 1.128 2.736 1.671 4.731 1.67 5.755 0 14.722-4.531 24.597-12.546 3.504 2.833 6.938 5.257 10.233 7.233-.146.417-.241.858-.241 1.324 0 2.206 1.794 4 4 4 1.365 0 2.57-.69 3.292-1.736 2.838 1.146 5.303 1.726 7.333 1.726 1.999 0 3.581-.556 4.694-1.67 4.332-4.333.052-15.801-10.879-29.318 3.063-3.79 5.687-7.542 7.743-11.087zm.817-1.915c-1.103 0-2-.897-2-2s.897-2 2-2 2 .897 2 2-.897 2-2 2zm.905-14.905c1.506 1.506 1.433 4.686-.153 8.981-.244-.047-.494-.076-.752-.076-2.206 0-4 1.794-4 4 0 1.206.548 2.277 1.395 3.011-2.42 4.155-5.642 8.608-9.45 13.068.026-.358.055-.715.055-1.079 0-8.271-6.729-15-15-15-.368 0-.729.029-1.09.055 14.216-12.162 25.74-16.214 28.995-12.96zm-27.905 40.905c-3.225 0-6.173-1.187-8.447-3.139l8.861-8.861h12.535c-.514 6.701-6.119 12-12.949 12zm-9.861-21.447 8.447 8.447-8.447 8.447c-1.952-2.274-3.139-5.222-3.139-8.447s1.187-6.173 3.139-8.447zm9.861-4.553c6.83 0 12.435 5.299 12.949 12h-12.535l-8.861-8.861c2.274-1.952 5.222-3.139 8.447-3.139zm-14-16c1.103 0 2 .897 2 2s-.897 2-2 2-2-.897-2-2 .897-2 2-2zm-13.905 1.095c1.62-1.621 5.146-1.413 9.942.538-.011.123-.037.241-.037.367 0 2.206 1.794 4 4 4 1.015 0 1.933-.392 2.639-1.017 3.142 1.877 6.421 4.185 9.772 6.873-1.155.972-2.32 1.986-3.493 3.049-4.184 1.514-7.499 4.83-9.013 9.014-1.055 1.164-2.067 2.333-3.046 3.501-9.603-11.981-14.13-22.958-10.764-26.325zm.905 40.905c1.103 0 2 .897 2 2s-.897 2-2 2-2-.897-2-2 .897-2 2-2zm-.905 14.905c-1.506-1.506-1.433-4.686.153-8.981.244.047.494.076.752.076 2.206 0 4-1.794 4-4 0-1.206-.548-2.277-1.395-3.011 2.42-4.154 5.641-8.608 9.45-13.068-.026.358-.055.715-.055 1.079 0 8.271 6.729 15 15 15 .368 0 .729-.029 1.091-.055-3.565 3.051-6.952 5.574-10.091 7.616v-9.561h-12v10h11.339c-9.052 5.758-15.861 7.288-18.244 4.905zm16.905-12.905v6h-8v-6zm25 14c-1.103 0-2-.897-2-2s.897-2 2-2 2 .897 2 2-.897 2-2 2zm13.905-1.095c-1.621 1.619-5.146 1.411-9.942-.538.011-.123.037-.241.037-.367 0-2.206-1.794-4-4-4-1.015 0-1.933.392-2.639 1.017-3.143-1.878-6.423-4.187-9.776-6.876 1.156-.973 2.321-1.982 3.495-3.046 4.185-1.514 7.502-4.831 9.015-9.017 1.055-1.164 2.066-2.332 3.045-3.499 9.604 11.982 14.132 22.959 10.765 26.326z"/><path d="m21 11h-12v10h12zm-2 8h-8v-6h8z"/><path d="m13 15h4v2h-4z"/><path d="m53 10h-12v10h12zm-2 8h-8v-6h8z"/><path d="m45 14h4v2h-4z"/><path d="m15 49h4v2h-4z"/><path d="m43 53h12v-10h-12zm2-8h8v6h-8z"/><path d="m47 47h4v2h-4z"/><path d="m35 25h2v2h-2z"/><path d="m31 25h2v2h-2z"/><path d="m39 25h2v2h-2z"/><path d="m21 31h2v2h-2z"/><path d="m25 31h2v2h-2z"/><path d="m31 37h2v2h-2z"/><path d="m39 37h2v2h-2z"/><path d="m35 37h2v2h-2z"/></g></g></svg>